<svg width="324" height="118" viewBox="0 0 324 118" fill="none" xmlns="http://www.w3.org/2000/svg">
<path d="M10.9072 46.3491C7.6316 46.3491 4.99055 45.3231 2.98404 43.2712C0.99468 41.2193 0 38.3483 0 34.6583V13.6564C0 9.24222 0.866058 5.86261 2.59817 3.51756C4.34744 1.17252 7.18571 0 11.113 0C13.2567 0 15.1603 0.396588 16.8238 1.18976C18.5045 1.98294 19.825 3.1727 20.7854 4.75906C21.7458 6.32817 22.226 8.3111 22.226 10.7079V18.5707H13.2224V11.8459C13.2224 10.4837 13.0509 9.56984 12.7079 9.10428C12.3649 8.62148 11.8333 8.38008 11.113 8.38008C10.2726 8.38008 9.70671 8.69045 9.41516 9.3112C9.12362 9.9147 8.97785 10.7251 8.97785 11.7425V34.529C8.97785 35.7878 9.15792 36.6758 9.51806 37.1931C9.89536 37.7103 10.427 37.969 11.113 37.969C11.8847 37.969 12.4249 37.65 12.7336 37.012C13.0595 36.374 13.2224 35.5464 13.2224 34.529V26.33H22.3289V34.9429C22.3289 38.9432 21.3256 41.8487 19.3191 43.6592C17.3126 45.4524 14.5086 46.3491 10.9072 46.3491Z" fill="#4F4F4F"/>
<path d="M25.3643 45.9352V0.413831H39.2556C41.5708 0.413831 43.32 0.948363 44.5034 2.01743C45.6867 3.06925 46.4756 4.55214 46.87 6.46611C47.2816 8.36283 47.4874 10.5958 47.4874 13.165C47.4874 15.648 47.1701 17.6309 46.5356 19.1138C45.9182 20.5967 44.7435 21.6227 43.0114 22.1917C44.4348 22.4848 45.4295 23.2004 45.9954 24.3384C46.5785 25.4592 46.87 26.9163 46.87 28.7095V45.9352H37.9436V28.1146C37.9436 26.7869 37.6692 25.9679 37.1204 25.6575C36.5888 25.3299 35.7227 25.1661 34.5223 25.1661V45.9352H25.3643ZM34.5737 17.2774H36.7603C38.0122 17.2774 38.6382 15.9066 38.6382 13.165C38.6382 11.389 38.501 10.2251 38.2266 9.6733C37.9522 9.12152 37.4377 8.84564 36.6831 8.84564H34.5737V17.2774Z" fill="#4F4F4F"/>
<path d="M50.4715 45.9352V0.413831H68.5815V9.20774H59.6808V18.0792H68.2214V26.6404H59.6808V37.0637H69.1732V45.9352H50.4715Z" fill="#4F4F4F"/>
<path d="M70.9482 45.9352L75.3213 0.413831H90.6788L94.9748 45.9352H86.4086L85.7655 38.5897H80.3119L79.7459 45.9352H70.9482ZM80.955 31.3218H85.0709L83.0901 8.17316H82.6785L80.955 31.3218Z" fill="#4F4F4F"/>
<path d="M100.969 45.9352V9.15601H95.5922V0.413831H115.4V9.15601H110.024V45.9352H100.969Z" fill="#4F4F4F"/>
<path d="M117.921 45.9352V0.413831H136.031V9.20774H127.13V18.0792H135.671V26.6404H127.13V37.0637H136.623V45.9352H117.921Z" fill="#4F4F4F"/>
<path d="M151.569 45.9352V0.413831H160.315V45.9352H151.569Z" fill="#4F4F4F"/>
<path d="M163.916 45.9352V0.413831H176.367C179.626 0.413831 182.078 1.32771 183.724 3.15546C185.371 4.96597 186.194 7.62139 186.194 11.1217V32.434C186.194 36.7447 185.439 40.0726 183.93 42.4177C182.438 44.7627 179.814 45.9352 176.058 45.9352H163.916ZM173.023 37.8914H174.592C176.256 37.8914 177.087 37.081 177.087 35.4601V11.9752C177.087 10.4579 176.882 9.48363 176.47 9.05255C176.076 8.60424 175.261 8.38008 174.026 8.38008H173.023V37.8914Z" fill="#4F4F4F"/>
<path d="M189.898 45.9352V0.413831H208.008V9.20774H199.108V18.0792H207.648V26.6404H199.108V37.0637H208.6V45.9352H189.898Z" fill="#4F4F4F"/>
<path d="M211.61 45.9352V0.413831H220.922L225.089 22.2176V0.413831H233.836V45.9352H224.986L220.459 23.1745V45.9352H211.61Z" fill="#4F4F4F"/>
<path d="M241.733 45.9352V9.15601H236.357V0.413831H256.164V9.15601H250.788V45.9352H241.733Z" fill="#4F4F4F"/>
<path d="M258.274 45.9352V0.413831H267.02V45.9352H258.274Z" fill="#4F4F4F"/>
<path d="M274.506 45.9352V9.15601H269.13V0.413831H288.938V9.15601H283.561V45.9352H274.506Z" fill="#4F4F4F"/>
<path d="M296.938 45.9352V30.9597L289.709 0.413831H298.687L301.208 15.829L303.729 0.413831H312.681L305.478 30.9597V45.9352H296.938Z" fill="#4F4F4F"/>
<path d="M315.948 52.0134L317.646 45.9094H314.379V38.2018H324V45.6766L321.376 52.0134H315.948Z" fill="#4F4F4F"/>
<path d="M0 117.39V64.0134H16.2958L20.7953 96.555L25.2645 64.0134H41.7123V117.39H31.9227V78.9346L25.7814 117.39H16.1742L9.66801 78.9346V117.39H0Z" fill="#4F4F4F"/>
<path d="M44.9958 117.39L50.1642 64.0134H68.3145L73.3918 117.39H63.2677L62.5076 108.777H56.0623L55.3934 117.39H44.9958ZM56.8224 100.255H61.6868L59.3458 73.1117H58.8593L56.8224 100.255Z" fill="#4F4F4F"/>
<path d="M76.6752 117.39V64.0134H87.2553V85.3944L92.2413 64.0134H103.004L97.0145 88.4575L104.25 117.39H93.1534L87.3161 91.5509V117.39H76.6752Z" fill="#4F4F4F"/>
<path d="M106.105 117.39V64.0134H127.508V74.3248H116.989V84.7272H127.083V94.7657H116.989V106.988H128.208V117.39H106.105Z" fill="#4F4F4F"/>
<path d="M145.871 117.39V64.0134H156.208V117.39H145.871Z" fill="#4F4F4F"/>
<path d="M165.055 117.39V74.2642H158.701V64.0134H182.111V74.2642H175.757V117.39H165.055Z" fill="#4F4F4F"/>
<path d="M212.058 117.875C207.599 117.875 204.315 116.632 202.207 114.145C200.099 111.638 199.046 107.958 199.046 103.106V64.0134H209.443V102.681C209.443 103.571 209.494 104.43 209.595 105.259C209.697 106.068 209.93 106.735 210.294 107.261C210.659 107.786 211.247 108.049 212.058 108.049C212.889 108.049 213.487 107.796 213.852 107.291C214.216 106.765 214.439 106.088 214.52 105.259C214.622 104.43 214.672 103.571 214.672 102.681V64.0134H225.07V103.106C225.07 107.958 224.016 111.638 221.908 114.145C219.8 116.632 216.517 117.875 212.058 117.875Z" fill="#4F4F4F"/>
<path d="M229.174 117.39V64.0134H240.18L245.105 89.5796V64.0134H255.442V117.39H244.984L239.633 90.7018V117.39H229.174Z" fill="#4F4F4F"/>
<path d="M259.699 117.39V64.0134H270.035V117.39H259.699Z" fill="#4F4F4F"/>
<path d="M278.883 117.39V74.2642H272.528V64.0134H295.938V74.2642H289.584V117.39H278.883Z" fill="#4F4F4F"/>
<path d="M305.394 117.39V99.8304L296.851 64.0134H307.461L310.44 82.0887L313.42 64.0134H324L315.487 99.8304V117.39H305.394Z" fill="#4F4F4F"/>
</svg>
