<svg width="946" height="271" viewBox="0 0 946 271" fill="none" xmlns="http://www.w3.org/2000/svg">
<path d="M113.498 122.5C104.794 122.5 97.7754 119.788 92.4434 114.365C87.1569 108.942 84.5137 101.354 84.5137 91.6016V36.0938C84.5137 24.4271 86.8151 15.4948 91.418 9.29688C96.0664 3.09896 103.609 0 114.045 0C119.742 0 124.8 1.04818 129.221 3.14453C133.687 5.24089 137.196 8.38542 139.748 12.5781C142.3 16.7253 143.576 21.9661 143.576 28.3008V49.082H119.65V31.3086C119.65 27.7083 119.195 25.293 118.283 24.0625C117.372 22.7865 115.959 22.1484 114.045 22.1484C111.812 22.1484 110.308 22.9688 109.533 24.6094C108.758 26.2044 108.371 28.3464 108.371 31.0352V91.2598C108.371 94.5866 108.85 96.9336 109.807 98.3008C110.809 99.668 112.222 100.352 114.045 100.352C116.096 100.352 117.531 99.5085 118.352 97.8223C119.217 96.1361 119.65 93.9486 119.65 91.2598V69.5898H143.85V92.3535C143.85 102.926 141.184 110.605 135.852 115.391C130.52 120.13 123.068 122.5 113.498 122.5Z" fill="#4F4F4F"/>
<path d="M151.916 121.406V1.09375H188.83C194.982 1.09375 199.631 2.50651 202.775 5.33203C205.92 8.11198 208.016 12.0312 209.064 17.0898C210.158 22.1029 210.705 28.0046 210.705 34.7949C210.705 41.3574 209.862 46.5983 208.176 50.5176C206.535 54.4368 203.413 57.1484 198.811 58.6523C202.593 59.4271 205.236 61.3184 206.74 64.3262C208.29 67.2884 209.064 71.1393 209.064 75.8789V121.406H185.344V74.3066C185.344 70.7975 184.615 68.6328 183.156 67.8125C181.743 66.9466 179.442 66.5137 176.252 66.5137V121.406H151.916ZM176.389 45.6641H182.199C185.526 45.6641 187.189 42.041 187.189 34.7949C187.189 30.1009 186.825 27.0247 186.096 25.5664C185.367 24.1081 183.999 23.3789 181.994 23.3789H176.389V45.6641Z" fill="#4F4F4F"/>
<path d="M218.635 121.406V1.09375H266.76V24.3359H243.107V47.7832H265.803V70.4102H243.107V97.959H268.332V121.406H218.635Z" fill="#4F4F4F"/>
<path d="M273.049 121.406L284.67 1.09375H325.48L336.896 121.406H314.133L312.424 101.992H297.932L296.428 121.406H273.049ZM299.641 82.7832H310.578L305.314 21.6016H304.221L299.641 82.7832Z" fill="#4F4F4F"/>
<path d="M352.824 121.406V24.1992H338.537V1.09375H391.174V24.1992H376.887V121.406H352.824Z" fill="#4F4F4F"/>
<path d="M397.873 121.406V1.09375H445.998V24.3359H422.346V47.7832H445.041V70.4102H422.346V97.959H447.57V121.406H397.873Z" fill="#4F4F4F"/>
<path d="M487.287 121.406V1.09375H510.529V121.406H487.287Z" fill="#4F4F4F"/>
<path d="M520.1 121.406V1.09375H553.186C561.844 1.09375 568.361 3.50911 572.736 8.33984C577.111 13.125 579.299 20.1432 579.299 29.3945V85.7227C579.299 97.1159 577.294 105.911 573.283 112.109C569.318 118.307 562.346 121.406 552.365 121.406H520.1ZM544.299 100.146H548.469C552.889 100.146 555.1 98.0046 555.1 93.7207V31.6504C555.1 27.64 554.553 25.0651 553.459 23.9258C552.411 22.7409 550.246 22.1484 546.965 22.1484H544.299V100.146Z" fill="#4F4F4F"/>
<path d="M589.143 121.406V1.09375H637.268V24.3359H613.615V47.7832H636.311V70.4102H613.615V97.959H638.84V121.406H589.143Z" fill="#4F4F4F"/>
<path d="M646.838 121.406V1.09375H671.584L682.658 58.7207V1.09375H705.9V121.406H682.385L670.354 61.25V121.406H646.838Z" fill="#4F4F4F"/>
<path d="M726.887 121.406V24.1992H712.6V1.09375H765.236V24.1992H750.949V121.406H726.887Z" fill="#4F4F4F"/>
<path d="M770.842 121.406V1.09375H794.084V121.406H770.842Z" fill="#4F4F4F"/>
<path d="M813.977 121.406V24.1992H799.689V1.09375H852.326V24.1992H838.039V121.406H813.977Z" fill="#4F4F4F"/>
<path d="M873.586 121.406V81.8262L854.377 1.09375H878.234L884.934 41.8359L891.633 1.09375H915.422L896.281 81.8262V121.406H873.586Z" fill="#4F4F4F"/>
<path d="M924.104 137.471L928.615 121.338H919.934V100.967H945.5V120.723L938.527 137.471H924.104Z" fill="#4F4F4F"/>
<path d="M0.5 269.783V149.471H37.1406L47.2578 222.82L57.3066 149.471H94.2891V269.783H72.2773V183.104L58.4688 269.783H36.8672L22.2383 183.104V269.783H0.5Z" fill="#4F4F4F"/>
<path d="M101.672 269.783L113.293 149.471H154.104L165.52 269.783H142.756L141.047 250.369H126.555L125.051 269.783H101.672ZM128.264 231.16H139.201L133.938 169.979H132.844L128.264 231.16Z" fill="#4F4F4F"/>
<path d="M172.902 269.783V149.471H196.691V197.664L207.902 149.471H232.102L218.635 204.568L234.904 269.783H209.953L196.828 211.541V269.783H172.902Z" fill="#4F4F4F"/>
<path d="M239.074 269.783V149.471H287.199V172.713H263.547V196.16H286.242V218.787H263.547V246.336H288.771V269.783H239.074Z" fill="#4F4F4F"/>
<path d="M328.488 269.783V149.471H351.73V269.783H328.488Z" fill="#4F4F4F"/>
<path d="M371.623 269.783V172.576H357.336V149.471H409.973V172.576H395.686V269.783H371.623Z" fill="#4F4F4F"/>
<path d="M477.307 270.877C467.281 270.877 459.898 268.074 455.158 262.469C450.419 256.818 448.049 248.523 448.049 237.586V149.471H471.428V236.629C471.428 238.634 471.542 240.571 471.77 242.439C471.997 244.262 472.521 245.766 473.342 246.951C474.162 248.136 475.484 248.729 477.307 248.729C479.175 248.729 480.52 248.159 481.34 247.02C482.16 245.835 482.661 244.308 482.844 242.439C483.072 240.571 483.186 238.634 483.186 236.629V149.471H506.564V237.586C506.564 248.523 504.195 256.818 499.455 262.469C494.715 268.074 487.333 270.877 477.307 270.877Z" fill="#4F4F4F"/>
<path d="M515.793 269.783V149.471H540.539L551.613 207.098V149.471H574.855V269.783H551.34L539.309 209.627V269.783H515.793Z" fill="#4F4F4F"/>
<path d="M584.426 269.783V149.471H607.668V269.783H584.426Z" fill="#4F4F4F"/>
<path d="M627.561 269.783V172.576H613.273V149.471H665.91V172.576H651.623V269.783H627.561Z" fill="#4F4F4F"/>
<path d="M687.17 269.783V230.203L667.961 149.471H691.818L698.518 190.213L705.217 149.471H729.006L709.865 230.203V269.783H687.17Z" fill="#4F4F4F"/>
</svg>
